<svg width="182" height="32" viewBox="0 0 182 32" fill="none" xmlns="http://www.w3.org/2000/svg">
<path d="M44.0136 14.9785C42.2101 14.3512 40.2498 14.6256 38.564 15.3705C37.1526 15.9978 36.094 16.978 35.0355 18.0757C34.1338 19.0559 33.4673 20.2712 32.84 21.4474C29.978 27.1714 22.3722 28.9748 16.4914 28.4652C13.5117 28.2299 10.6105 27.2106 8.17977 25.4071C6.2587 23.9565 4.61207 21.8002 3.86717 19.6831C3.59273 18.8598 3.43594 17.9581 3.35753 17.0956C3.35753 17.0172 3.35753 16.978 3.35753 16.8996C3.35753 16.7427 3.35749 16.5467 3.31828 16.3899C3.31828 15.9978 3.31828 15.6058 3.31828 15.2137C3.31828 14.8609 3.35752 14.4688 3.39672 14.116C3.43593 13.9199 3.43591 13.7239 3.47512 13.5279C3.47512 13.4103 3.51431 13.3319 3.51431 13.2142C3.51431 13.175 3.51431 13.175 3.51431 13.1358C3.71034 12.3125 3.90639 11.5284 4.22003 10.7443C4.29844 10.5875 4.33765 10.4307 4.41606 10.313C4.41606 10.313 4.61207 9.92098 4.65128 9.88177C4.88651 9.48972 5.12176 9.05846 5.357 8.70561C5.47461 8.54879 5.59224 8.39197 5.70986 8.19594C5.78827 8.07833 5.86667 7.99991 5.94508 7.8823C6.29793 7.49024 6.65075 7.13739 7.0428 6.78454C7.23883 6.62772 7.43486 6.4709 7.63088 6.31408C7.70929 6.23567 7.78774 6.19646 7.86615 6.11805C7.90536 6.07885 7.90534 6.07884 7.94455 6.07884C7.94455 6.07884 7.94454 6.07884 7.98374 6.07884C8.45421 5.7652 8.9247 5.49076 9.43437 5.21633C10.5713 4.62824 11.4338 4.35381 12.6492 4.04016C15.9425 3.25605 19.667 3.09923 22.9603 3.84414C26.4495 4.62824 29.3507 6.66693 31.4678 9.68575C31.9775 10.4306 33.1537 10.4307 33.7809 9.84257C34.4866 9.17608 34.4474 8.19594 33.9378 7.45104C31.7815 4.39301 28.7234 2.04069 25.1949 0.942935C21.6665 -0.154818 17.7459 -0.194026 14.0998 0.315645C9.1991 0.982138 4.29844 3.41288 1.8677 8.07833C0.142662 11.3716 -0.406214 15.3705 0.299484 19.0559C1.59326 25.6032 7.51331 30.151 13.5509 31.4056C19.7454 32.6993 27.4688 31.4056 32.4871 26.9361C32.6048 27.289 32.7616 27.6418 32.9968 27.9947C33.9378 29.6021 35.3492 30.6607 37.1526 30.9743C38.9953 31.3272 40.8771 30.8567 42.563 30.0726C45.5426 28.7004 48.0517 25.9952 48.4438 22.5451C48.7966 19.4871 46.9932 16.0762 44.0136 14.9785ZM5.98427 7.96071C5.82745 8.19594 5.94507 8.03912 5.98427 7.96071V7.96071ZM3.55356 13.2927C3.51435 13.4887 3.51435 13.4495 3.55356 13.2927V13.2927ZM45.1897 22.1531C45.1897 22.3099 45.1505 22.4667 45.1505 22.6235C45.1505 22.6235 45.1505 22.7412 45.1113 22.7804C44.9937 23.3685 44.7977 23.8389 44.5624 24.231C44.0136 25.1327 43.2687 25.8776 42.4453 26.4265C39.897 28.1515 37.9367 27.9163 37.5447 27.7595C35.1139 26.8185 35.3492 24.427 35.3884 24.0742C35.4276 23.7997 35.702 22.8588 35.8196 22.5843C36.1333 21.8786 37.5055 18.0757 41.8181 17.9973C42.759 17.9973 43.5431 18.3502 44.0919 18.9774C44.7192 19.6831 45.0329 20.428 45.1505 21.4866C45.1505 21.5258 45.1505 21.6434 45.1505 21.6434C45.1897 21.8394 45.1897 21.9963 45.1897 22.1531ZM180.958 28.0339C180.527 27.1714 179.586 26.9361 178.763 27.289C175.979 28.4652 171.98 28.8572 169.589 26.5049C168.334 25.2895 167.628 23.7213 165.982 23.0156C164.296 22.2707 162.414 22.7412 160.807 23.4077C157.513 24.819 154.847 27.7987 151.319 28.5828C150.731 28.7004 150.064 28.7788 149.594 28.622C147.947 27.9947 147.908 25.0935 147.908 24.6622C147.908 24.2702 147.947 23.8781 147.947 23.4861C148.143 21.4082 148.927 19.4087 149.79 17.566C150.182 16.7427 149.515 15.6842 148.77 15.4097C147.83 15.0961 147.085 15.645 146.693 16.4683C146.614 16.6643 146.497 16.8603 146.418 17.0956C146.065 16.6643 145.673 16.2723 145.203 15.9586C143.752 14.9785 141.831 14.8217 140.185 15.3313C138.734 15.7626 137.558 16.5859 136.382 17.566C133.951 19.6047 132.187 22.8588 132.579 26.1912C132.187 26.4265 131.795 26.6617 131.363 26.8577C131.089 27.0146 130.148 27.5242 129.364 27.5634C129.246 27.5634 128.227 27.6811 128.227 26.2304C128.227 25.7992 128.227 25.3679 128.305 24.8975C128.344 24.5054 128.423 24.0741 128.462 23.8389C128.854 21.9963 129.364 20.1928 129.795 18.3894C130.109 17.0172 129.638 15.3705 128.109 15.6842C124.816 16.3899 121.523 16.6251 118.151 16.3507C117.014 16.2723 116.348 17.3308 116.465 18.3894C116.622 20.0752 116.583 21.761 116.112 23.2116C115.681 24.5054 115.132 25.3287 114.034 26.2304C113.368 26.7793 111.525 27.7987 110.506 28.1123C112.505 26.1912 112.937 24.3094 113.211 22.4275C114.034 16.7819 110.388 12.4301 105.096 14.116C104.194 14.3904 103.371 14.8609 102.587 15.4097C103.331 11.842 104.116 8.31355 104.782 5.37315C105.213 3.45208 102.155 2.58956 101.685 4.54983C101.685 4.54983 98.4699 19.4087 97.0977 26.1128C95.5295 27.4458 92.8243 28.1515 90.8641 27.6811C90.3936 27.5634 89.9623 27.4066 89.5703 27.1714C90.7464 26.1912 91.805 24.9759 92.6675 23.6821C93.8045 21.9963 94.5494 19.9184 94.2357 17.8013C93.7653 14.7433 90.6288 13.3711 88.0021 14.2728C84.4736 15.449 83.023 19.1735 83.3366 22.7804C83.4543 24.0349 83.8463 25.2503 84.3952 26.3089C81.8468 27.2498 78.9456 27.1322 76.8285 25.4071C75.8876 24.623 75.1819 23.5645 74.6722 22.3883C75.6523 21.9178 76.5933 21.2906 77.3382 20.5065C79.4161 18.2717 83.9639 12.8614 84.3168 5.21633C84.3952 3.68731 83.8071 1.92307 82.5917 0.982136C81.6116 0.237233 80.2394 0.119619 79.0632 0.433262C74.0841 1.84466 71.4181 7.33342 70.5556 12.2341C70.1244 14.704 69.9676 17.4876 70.5164 20.0752C68.4777 20.1144 64.8708 19.3695 64.6356 18.9774C63.3418 16.3507 62.0088 15.3313 60.5582 14.9001C58.7156 14.3512 56.9122 14.6256 55.1871 15.4097C53.7757 16.037 52.5996 16.9388 51.5802 18.0365C49.0319 20.8201 47.4637 25.1327 50.012 28.6612C50.6001 29.4845 51.4234 30.1902 52.3251 30.5823C54.5598 31.6016 57.0298 31.0919 59.1077 30.1118C62.0873 28.7396 64.5964 26.0344 64.9885 22.5843C64.9885 22.5059 64.9885 22.4667 64.9885 22.3883C67.0664 23.1724 69.2226 23.5645 71.4966 23.3292C72.0062 24.5446 72.6727 25.7208 73.496 26.7009C76.6717 30.5823 82.2389 31.0527 86.5123 29.014C86.7083 29.2101 86.9435 29.3669 87.1395 29.5237C89.2959 31.0919 92.2755 31.484 94.8238 30.8175C96.1176 30.4646 97.2938 29.8766 98.3131 29.014C99.6853 30.9351 101.606 31.7584 103.606 31.7192C103.606 31.7192 103.606 31.7192 103.645 31.7192C103.645 31.7192 104.939 31.7584 105.409 31.7584C109.291 31.7584 113.133 31.1311 116.269 28.5044C118.896 26.3089 119.758 22.9764 119.758 19.6439C121.876 19.6831 123.993 19.5655 126.11 19.2911C125.757 20.7417 125.365 22.1531 125.13 23.6429C124.934 24.7406 124.894 25.7992 125.012 26.8969C125.13 28.0339 125.443 29.4061 126.306 30.151C127.364 31.0527 129.129 30.9351 130.383 30.6607C131.559 30.3862 132.618 29.9158 133.676 29.2885C133.755 29.2493 133.833 29.2493 133.872 29.3277C134.304 29.8766 134.813 30.347 135.441 30.6607C137.048 31.5232 138.891 31.5232 140.577 31.0135C142.341 30.5038 143.987 29.5629 145.242 28.2299C145.869 29.7589 146.889 31.1311 148.457 31.68C152.338 33.013 156.259 29.8766 159.356 27.8771C160.728 27.0146 162.414 25.7992 164.061 25.8776C164.688 25.9168 165.158 26.2304 165.59 26.7793C166.256 27.5634 166.766 28.3475 167.55 29.0532C171.039 32.1897 176.136 31.9152 180.174 30.1902C181.037 29.9942 181.311 28.818 180.958 28.0339ZM61.3423 24.2702C60.8327 25.3287 60.0094 26.152 59.186 26.7401C58.1275 27.485 56.9905 28.0731 55.4615 28.1515C52.1683 28.3083 51.8939 25.3679 51.8546 25.2111C51.8154 24.8583 51.8154 24.5054 51.8546 24.1526C51.9723 22.9372 52.678 21.565 53.6189 20.5457C54.207 19.9184 54.8342 19.3303 55.4615 18.899C56.4025 18.2717 57.5394 17.8797 58.5196 17.8797C59.4997 17.8797 60.3622 18.2325 60.9895 18.7814C62.1265 19.7615 62.0481 21.6042 62.0481 21.6434C62.0873 22.3491 61.7736 23.4077 61.3423 24.2702ZM73.7313 19.1343C73.5353 17.9581 73.4176 16.7819 73.4176 15.7234C73.4176 11.7636 75.1035 7.29421 77.9263 4.51063C79.5337 2.9032 81.3764 3.41287 80.7883 6.54931C79.4945 13.175 77.1814 15.645 76.3581 16.7427C75.4171 17.9581 74.9859 18.2717 73.7313 19.1343ZM87.2572 24.7406C87.1788 24.5838 87.1003 24.427 87.0219 24.231C86.7083 23.4861 86.5123 22.5843 86.5515 21.8786C86.6299 20.6633 86.9435 19.0951 88.2373 17.8797C89.5311 16.8603 91.0601 17.4092 91.0993 18.6638C91.0993 18.7814 91.0993 18.899 91.0993 19.0166C91.0993 19.1735 91.0601 19.2911 91.0601 19.4479C91.0601 19.4871 91.0209 19.6047 90.9817 19.7615C90.9033 20.1144 90.7857 20.4672 90.668 20.7809C89.8839 22.2707 88.5902 23.6821 87.2572 24.7406ZM110.192 22.5451C109.761 27.0146 102.626 32.0329 100.273 26.5049C100.313 26.3481 100.352 26.1912 100.352 26.0344C100.587 24.8975 100.822 23.6429 101.097 22.3883C101.332 21.565 101.685 20.7809 102.234 20.036C103.292 18.5854 105.174 16.7427 107.095 16.8211C109.8 16.8996 110.428 20.3496 110.192 22.5451ZM143.36 25.7992C142.733 26.7401 141.831 27.289 140.733 27.7203C138.773 28.426 137.401 28.0339 136.852 27.6026C134.97 26.1128 135.872 23.7997 136.146 23.094C136.146 23.094 136.93 21.369 138.459 19.9968C139.126 19.4087 139.675 19.0166 140.459 18.6638C141.165 18.3502 141.831 18.1933 142.458 18.2717C144.301 18.507 144.772 20.4672 144.732 20.9377C144.772 22.3883 144.536 23.9957 143.36 25.7992Z" fill="url(#paint0_linear)"/>
<defs>
<linearGradient id="paint0_linear" x1="0.0263399" y1="16.1138" x2="181.109" y2="16.1138" gradientUnits="userSpaceOnUse">
<stop stop-color="#3358DE"/>
<stop offset="0.5" stop-color="#682296"/>
<stop offset="1" stop-color="#F50FA5"/>
</linearGradient>
</defs>
</svg>
